#Comment line ignore any data following # character 
#Hierarchical Translation and Rotation (.htr) file 
[Header]	
#Header keywords are followed by a single value 
FileType HTR		#Single word string
DataType HTRS		#Translation followed by rotation and scale data
FileVersion 1		#integer
NumSegments 64		#integer
NumFrames 3		#integer
DataFrameRate 30		#integer, data frame rate in this file
EulerRotationOrder ZYX
CalibrationUnits mm
RotationUnits Degrees
GlobalAxisofGravity Y
BoneLengthAxis Y
ScaleFactor 1.00
[SegmentNames&Hierarchy]
#CHILD	PARENT
Pinger_Root GLOBAL
Pelvis Pinger_Root
L_Hip Pelvis
R_Hip Pelvis
Rear_Leg01 Pelvis
Spine1 Pelvis
L_Leg01 L_Hip
L_Leg02 L_Leg01
L_Leg03 L_Leg02
L_Foot L_Leg03
L_Toe1_01 L_Foot
L_Toe2_01 L_Foot
L_Toe3_01 L_Foot
planeAlignerLeft L_Foot
L_Toe1_02 L_Toe1_01
L_Toe1_03 L_Toe1_02
L_Toe2_02 L_Toe2_01
L_Toe2_03 L_Toe2_02
L_Toe3_02 L_Toe3_01
L_Toe3_03 L_Toe3_02
planeLockWeightLeft planeAlignerLeft
R_Leg01 R_Hip
R_Leg02 R_Leg01
R_Leg03 R_Leg02
R_Foot R_Leg03
planeAlignerRight R_Foot
R_Toe1_01 R_Foot
R_Toe2_01 R_Foot
R_Toe3_01 R_Foot
planeLockWeightRight planeAlignerRight
R_Toe1_02 R_Toe1_01
R_Toe1_03 R_Toe1_02
R_Toe2_02 R_Toe2_01
R_Toe2_03 R_Toe2_02
R_Toe3_02 R_Toe3_01
R_Toe3_03 R_Toe3_02
Rear_Leg02 Rear_Leg01
Rear_Leg03 Rear_Leg02
Rear_Leg04 Rear_Leg03
Rear_Foot Rear_Leg04
planeAlignerCenter Rear_Foot
Rear_Toe1_01 Rear_Foot
Rear_Toe2_01 Rear_Foot
Rear_Toe3_01 Rear_Foot
planeLockWeightCenter planeAlignerCenter
Rear_Toe1_02 Rear_Toe1_01
Rear_Toe1_03 Rear_Toe1_02
Rear_Toe2_02 Rear_Toe2_01
Rear_Toe2_03 Rear_Toe2_02
Rear_Toe3_02 Rear_Toe3_01
Rear_Toe3_03 Rear_Toe3_02
Back_Bone Spine1
Head Spine1
Motor_Bone Back_Bone
Ping_Mechanism Back_Bone
BN_LookIK Head
bottomMouth Head
L_Mouth01 Head
L_mouthFront Head
mouthGun Head
R_Mouth01 Head
R_mouthFront Head
TopMouth Head
weapon_bone Head
[BasePosition]
#SegmentName Tx, Ty, Tz, Rx, Ry, Rz, BoneLength
Pinger_Root 0.000000 0.000000 0.000000 -90.000000 0.000000 0.000000 10.000000 
Pelvis 0.000000 0.000000 0.000000 0.000000 0.000000 0.000000 10.000000 
L_Hip 0.000000 0.000000 0.000000 0.000000 0.000000 0.000000 10.000000 
R_Hip 0.000000 0.000000 0.000000 0.000000 0.000000 0.000000 10.000000 
Rear_Leg01 0.000000 0.000000 0.000000 0.000000 0.000000 0.000000 10.000000 
Spine1 0.000000 0.000000 0.000000 0.000000 0.000000 0.000000 10.000000 
L_Leg01 0.000000 0.000000 0.000000 0.000000 0.000000 0.000000 10.000000 
L_Leg02 0.000000 0.000000 0.000000 0.000000 0.000000 0.000000 10.000000 
L_Leg03 0.000000 0.000000 0.000000 0.000000 0.000000 0.000000 10.000000 
L_Foot 0.000000 0.000000 0.000000 0.000000 0.000000 0.000000 10.000000 
L_Toe1_01 0.000000 0.000000 0.000000 0.000000 0.000000 0.000000 10.000000 
L_Toe2_01 0.000000 0.000000 0.000000 0.000000 0.000000 0.000000 10.000000 
L_Toe3_01 0.000000 0.000000 0.000000 0.000000 0.000000 0.000000 10.000000 
planeAlignerLeft 0.000000 0.000000 0.000000 0.000000 0.000000 0.000000 10.000000 
L_Toe1_02 0.000000 0.000000 0.000000 0.000000 0.000000 0.000000 10.000000 
L_Toe1_03 0.000000 0.000000 0.000000 0.000000 0.000000 0.000000 10.000000 
L_Toe2_02 0.000000 0.000000 0.000000 0.000000 0.000000 0.000000 10.000000 
L_Toe2_03 0.000000 0.000000 0.000000 0.000000 0.000000 0.000000 10.000000 
L_Toe3_02 0.000000 0.000000 0.000000 0.000000 0.000000 0.000000 10.000000 
L_Toe3_03 0.000000 0.000000 0.000000 0.000000 0.000000 0.000000 10.000000 
planeLockWeightLeft 0.000000 0.000000 0.000000 0.000000 0.000000 0.000000 10.000000 
R_Leg01 0.000000 0.000000 0.000000 0.000000 0.000000 0.000000 10.000000 
R_Leg02 0.000000 0.000000 0.000000 0.000000 0.000000 0.000000 10.000000 
R_Leg03 0.000000 0.000000 0.000000 0.000000 0.000000 0.000000 10.000000 
R_Foot 0.000000 0.000000 0.000000 0.000000 0.000000 0.000000 10.000000 
planeAlignerRight 0.000000 0.000000 0.000000 0.000000 0.000000 0.000000 10.000000 
R_Toe1_01 0.000000 0.000000 0.000000 0.000000 0.000000 0.000000 10.000000 
R_Toe2_01 0.000000 0.000000 0.000000 0.000000 0.000000 0.000000 10.000000 
R_Toe3_01 0.000000 0.000000 0.000000 0.000000 0.000000 0.000000 10.000000 
planeLockWeightRight 0.000000 0.000000 0.000000 0.000000 0.000000 0.000000 10.000000 
R_Toe1_02 0.000000 0.000000 0.000000 0.000000 0.000000 0.000000 10.000000 
R_Toe1_03 0.000000 0.000000 0.000000 0.000000 0.000000 0.000000 10.000000 
R_Toe2_02 0.000000 0.000000 0.000000 0.000000 0.000000 0.000000 10.000000 
R_Toe2_03 0.000000 0.000000 0.000000 0.000000 0.000000 0.000000 10.000000 
R_Toe3_02 0.000000 0.000000 0.000000 0.000000 0.000000 0.000000 10.000000 
R_Toe3_03 0.000000 0.000000 0.000000 0.000000 0.000000 0.000000 10.000000 
Rear_Leg02 0.000000 0.000000 0.000000 0.000000 0.000000 0.000000 10.000000 
Rear_Leg03 0.000000 0.000000 0.000000 0.000000 0.000000 0.000000 10.000000 
Rear_Leg04 0.000000 0.000000 0.000000 0.000000 0.000000 0.000000 10.000000 
Rear_Foot 0.000000 0.000000 0.000000 0.000000 0.000000 0.000000 10.000000 
planeAlignerCenter 0.000000 0.000000 0.000000 0.000000 0.000000 0.000000 10.000000 
Rear_Toe1_01 0.000000 0.000000 0.000000 0.000000 0.000000 0.000000 10.000000 
Rear_Toe2_01 0.000000 0.000000 0.000000 0.000000 0.000000 0.000000 10.000000 
Rear_Toe3_01 0.000000 0.000000 0.000000 0.000000 0.000000 0.000000 10.000000 
planeLockWeightCenter 0.000000 0.000000 0.000000 0.000000 0.000000 0.000000 10.000000 
Rear_Toe1_02 0.000000 0.000000 0.000000 0.000000 0.000000 0.000000 10.000000 
Rear_Toe1_03 0.000000 0.000000 0.000000 0.000000 0.000000 0.000000 10.000000 
Rear_Toe2_02 0.000000 0.000000 0.000000 0.000000 0.000000 0.000000 10.000000 
Rear_Toe2_03 0.000000 0.000000 0.000000 0.000000 0.000000 0.000000 10.000000 
Rear_Toe3_02 0.000000 0.000000 0.000000 0.000000 0.000000 0.000000 10.000000 
Rear_Toe3_03 0.000000 0.000000 0.000000 0.000000 0.000000 0.000000 10.000000 
Back_Bone 0.000000 0.000000 0.000000 0.000000 0.000000 0.000000 10.000000 
Head 0.000000 0.000000 0.000000 0.000000 0.000000 0.000000 10.000000 
Motor_Bone 0.000000 0.000000 0.000000 0.000000 0.000000 0.000000 10.000000 
Ping_Mechanism 0.000000 0.000000 0.000000 0.000000 0.000000 0.000000 10.000000 
BN_LookIK 0.000000 0.000000 0.000000 0.000000 0.000000 0.000000 10.000000 
bottomMouth 0.000000 0.000000 0.000000 0.000000 0.000000 0.000000 10.000000 
L_Mouth01 0.000000 0.000000 0.000000 0.000000 0.000000 0.000000 10.000000 
L_mouthFront 0.000000 0.000000 0.000000 0.000000 0.000000 0.000000 10.000000 
mouthGun 0.000000 0.000000 0.000000 0.000000 0.000000 0.000000 10.000000 
R_Mouth01 0.000000 0.000000 0.000000 0.000000 0.000000 0.000000 10.000000 
R_mouthFront 0.000000 0.000000 0.000000 0.000000 0.000000 0.000000 10.000000 
TopMouth 0.000000 0.000000 0.000000 0.000000 0.000000 0.000000 10.000000 
weapon_bone 0.000000 0.000000 0.000000 0.000000 0.000000 0.000000 10.000000 
#Beginning of Data. Separated by tabs
#Fr	Tx	Ty	Tz	Rx	Ry	Rz	SF
[Pinger_Root]
11 0.000000 0.000000 0.000000 -0.000075 -0.000000 -0.000020 0.000000
12 0.000000 0.000000 0.000000 -0.000075 -0.000000 -0.000020 0.000000
13 0.000000 0.000000 0.000000 -0.000075 -0.000000 -0.000020 0.000000
[Pelvis]
11 -170.083481 -298.703552 4091.388184 -159.924103 -84.045441 144.607391 4105.801758
12 -169.839188 -270.505585 4073.565918 -170.072922 -84.239685 155.079712 4086.068604
13 -168.844147 -238.271713 4061.568359 178.127502 -84.239349 167.324158 4072.053223
[L_Hip]
11 5.766392 125.831482 872.656799 160.158691 -45.484898 122.312202 881.701050
12 5.766392 125.831482 872.656799 160.158691 -45.484894 122.312202 881.701050
13 5.766392 125.831482 872.656799 160.158691 -45.484894 122.312202 881.701050
[R_Hip]
11 5.765438 125.836372 -872.654907 38.087841 49.812687 125.703735 881.699829
12 5.765438 125.836372 -872.654907 38.087841 49.812687 125.703735 881.699829
13 5.765438 125.836372 -872.654907 38.087841 49.812687 125.703735 881.699829
[Rear_Leg01]
11 -192.298416 -925.602966 -0.001907 172.884201 9.760626 -144.172241 945.367432
12 -192.298416 -925.602966 -0.001907 172.153152 9.530334 -143.795792 945.367432
13 -192.298416 -925.602966 -0.001907 171.438889 9.207567 -143.082855 945.367432
[Spine1]
11 290.604584 5.007505 0.000477 13.239254 1.347310 12.525517 290.647736
12 290.604584 5.007505 0.000477 13.181421 1.830513 11.944790 290.647736
13 290.604584 5.007505 0.000477 13.154844 2.015157 12.902073 290.647736
[L_Leg01]
11 761.932007 -0.002384 -0.069261 21.467228 -20.883165 12.487827 761.932068
12 761.932007 -0.002384 -0.069261 21.713482 -20.682438 12.146097 761.932068
13 761.932007 -0.002384 -0.069261 22.135199 -20.600594 11.652702 761.932068
[L_Leg02]
11 1441.140503 -0.000954 -0.000715 0.062005 0.048959 -123.326691 1441.140503
12 1441.140503 -0.000954 -0.000715 0.225179 -0.005782 -124.500160 1441.140503
13 1441.140503 -0.000954 -0.000715 0.389440 -0.057169 -125.673759 1441.140503
[L_Leg03]
11 1686.963989 -0.000715 -0.000954 0.026254 -0.006518 103.033669 1686.963989
12 1686.963989 -0.000715 -0.000954 0.026229 -0.006620 103.475243 1686.963989
13 1686.963989 -0.000715 -0.000954 0.024923 -0.007677 103.645035 1686.963989
[L_Foot]
11 3041.570068 -30.715107 11.297464 -0.783147 9.186777 41.341408 3041.746094
12 3041.570068 -30.715107 11.297464 -0.357160 8.548146 41.900768 3041.746094
13 3041.570068 -30.715107 11.297464 0.061824 7.905453 42.454395 3041.746094
[L_Toe1_01]
11 -188.216690 -224.732346 -21.137953 94.621361 -20.846258 178.389069 293.899567
12 -188.216690 -224.732346 -21.137953 94.621361 -20.846258 178.389069 293.899567
13 -188.216690 -224.732346 -21.137953 94.621361 -20.846258 178.389069 293.899567
[L_Toe2_01]
11 200.746536 -219.926590 148.838394 -103.114754 -23.047394 -32.408371 332.896027
12 200.746536 -219.926590 148.838394 -103.114754 -23.047394 -32.408371 332.896027
13 200.746536 -219.926590 148.838394 -103.114754 -23.047394 -32.408375 332.896027
[L_Toe3_01]
11 188.832520 -219.859131 -191.078659 -105.774963 27.009623 -55.716061 347.140900
12 188.832520 -219.859131 -191.078659 -105.774963 27.009623 -55.716061 347.140900
13 188.832520 -219.859131 -191.078659 -105.774963 27.009623 -55.716061 347.140900
[planeAlignerLeft]
11 0.812531 -811.448792 -0.314951 0.000000 -90.000000 -90.001900 811.449280
12 0.812531 -811.448792 -0.314951 0.000000 -90.000000 -90.001900 811.449280
13 0.812531 -811.448792 -0.314951 0.000000 -90.000000 -90.001900 811.449280
[L_Toe1_02]
11 413.761139 0.000477 0.000000 0.001661 0.070897 0.001661 413.761139
12 413.761139 0.000477 0.000000 0.001661 0.070897 0.001661 413.761139
13 413.761139 0.000477 0.000000 0.001661 0.070897 0.001661 413.761139
[L_Toe1_03]
11 464.317322 0.000358 -0.000089 0.001673 -0.448396 -0.003292 464.317322
12 464.317322 0.000358 -0.000089 0.001673 -0.448396 -0.003292 464.317322
13 464.317322 0.000358 -0.000089 0.001673 -0.448396 -0.003292 464.317322
[L_Toe2_02]
11 342.235809 -0.000477 0.000238 0.001179 -79.338387 0.001179 342.235809
12 342.235809 -0.000477 0.000238 0.001179 -79.333801 0.001179 342.235809
13 342.235809 -0.000477 0.000238 0.001179 -79.329193 0.001179 342.235809
[L_Toe2_03]
11 420.210846 -0.000715 0.000000 -179.998642 68.908218 -179.995087 420.210846
12 420.210846 -0.000715 0.000000 -179.998642 68.908211 -179.995087 420.210846
13 420.210846 -0.000715 0.000000 -179.998642 68.908218 -179.995087 420.210846
[L_Toe3_02]
11 329.270111 0.000954 0.000000 0.004675 -84.736786 0.004675 329.270111
12 329.270111 0.000954 0.000000 0.004675 -84.733444 0.004675 329.270111
13 329.270111 0.000954 0.000000 0.004675 -84.730141 0.004675 329.270111
[L_Toe3_03]
11 439.137451 -0.001907 0.000954 179.993240 43.140900 -179.999146 439.137451
12 439.137451 -0.001907 0.000954 179.993240 43.140900 -179.999146 439.137451
13 439.137451 -0.001907 0.000954 179.993240 43.140900 -179.999146 439.137451
[planeLockWeightLeft]
11 -0.000954 0.000238 -0.000305 -0.011826 -0.004376 0.005620 0.001029
12 -0.000954 0.000238 -0.000305 -0.011826 -0.004376 0.005620 0.001029
13 -0.000954 0.000238 -0.000305 -0.011826 -0.004376 0.005620 0.001029
[R_Leg01]
11 761.455627 -0.001907 -0.000358 108.263580 -38.340866 33.017353 761.455688
12 761.455627 -0.001907 -0.000358 106.909004 -37.553585 33.971947 761.455688
13 761.455627 -0.001907 -0.000358 105.447197 -36.320213 35.201801 761.455688
[R_Leg02]
11 1441.140625 0.000000 -0.000238 1.120695 -0.312227 -101.403137 1441.140625
12 1441.140625 0.000000 -0.000238 1.070227 -0.287405 -102.758057 1441.140625
13 1441.140625 0.000000 -0.000238 1.006302 -0.261308 -103.979141 1441.140625
[R_Leg03]
11 1686.963989 0.000954 0.001431 -0.021502 0.006307 104.739334 1686.963989
12 1686.963989 0.000954 0.001431 -0.019152 0.006127 105.449287 1686.963989
13 1686.963989 0.000954 0.001431 -0.016804 0.005918 106.159164 1686.963989
[R_Foot]
11 3041.560059 -30.531288 -11.204481 9.202818 -34.226372 32.046104 3041.734131
12 3041.560059 -30.531288 -11.204481 9.894545 -35.051422 32.268978 3041.734131
13 3041.560059 -30.531288 -11.204481 10.589525 -35.878700 32.481850 3041.734131
[planeAlignerRight]
11 -0.635147 -812.270569 -0.364304 0.000000 -89.960434 -90.005180 812.270874
12 -0.635147 -812.270569 -0.364304 0.000000 -89.960434 -90.005180 812.270874
13 -0.635147 -812.270569 -0.364304 0.000000 -89.960434 -90.005180 812.270874
[R_Toe1_01]
11 -188.383347 -224.864899 21.052242 78.327164 0.810639 -176.062744 294.101532
12 -188.383347 -224.864899 21.052242 78.327164 0.810639 -176.062744 294.101532
13 -188.383347 -224.864899 21.052242 78.327164 0.810639 -176.062744 294.101532
[R_Toe2_01]
11 200.637817 -220.002121 -148.787384 -94.913536 45.204365 -40.768372 332.857574
12 200.637817 -220.002121 -148.787384 -94.913536 45.204365 -40.768372 332.857574
13 200.637817 -220.002121 -148.787384 -94.913536 45.204365 -40.768372 332.857574
[R_Toe3_01]
11 188.606735 -220.092957 191.126343 -77.777199 -16.659967 -55.221592 347.192566
12 188.606735 -220.092957 191.126343 -77.777176 -16.659966 -55.221592 347.192566
13 188.606735 -220.092957 191.126343 -77.777176 -16.659969 -55.221600 347.192566
[planeLockWeightRight]
11 -0.000477 0.000000 0.000000 -0.011823 -0.004379 -0.000027 0.000477
12 -0.000477 0.000000 0.000000 -0.011823 -0.004379 -0.000027 0.000477
13 -0.000477 0.000000 0.000000 -0.011823 -0.004379 -0.000027 0.000477
[R_Toe1_02]
11 413.762085 0.000477 -0.000119 0.001534 -9.821270 0.001534 413.762085
12 413.762085 0.000477 -0.000119 0.001534 -9.821080 0.001534 413.762085
13 413.762085 0.000477 -0.000119 0.001534 -9.820889 0.001534 413.762085
[R_Toe1_03]
11 464.317810 0.000000 0.001088 0.001388 9.998350 -0.003176 464.317810
12 464.317810 0.000000 0.001088 0.001388 9.998158 -0.003176 464.317810
13 464.317810 0.000000 0.001088 0.001388 9.997965 -0.003176 464.317810
[R_Toe2_02]
11 342.234741 -0.000954 0.000238 -0.002332 -79.834015 -0.002332 342.234741
12 342.234741 -0.000954 0.000238 -0.002332 -79.833969 -0.002332 342.234741
13 342.234741 -0.000954 0.000238 -0.002332 -79.833939 -0.002332 342.234741
[R_Toe2_03]
11 420.210846 0.000715 -0.000268 -179.995636 64.198990 -179.999222 420.210846
12 420.210846 0.000715 -0.000268 -179.995636 64.198967 -179.999222 420.210846
13 420.210846 0.000715 -0.000268 -179.995636 64.198990 -179.999222 420.210846
[R_Toe3_02]
11 329.270355 -0.000477 -0.000954 0.001175 -84.679474 0.001175 329.270355
12 329.270355 -0.000477 -0.000954 0.001175 -84.677521 0.001175 329.270355
13 329.270355 -0.000477 -0.000954 0.001175 -84.675453 0.001175 329.270355
[R_Toe3_03]
11 439.137939 0.000238 0.001431 -179.997650 45.533474 -179.990097 439.137939
12 439.137939 0.000238 0.001431 -179.997650 45.533470 -179.990097 439.137939
13 439.137939 0.000238 0.001431 -179.997650 45.533470 -179.990097 439.137939
[Rear_Leg02]
11 1162.777710 -0.029802 0.005960 2.388950 -1.836681 -128.450134 1162.777710
12 1162.777710 -0.029802 0.005960 2.426566 -1.781943 -131.382538 1162.777710
13 1162.777710 -0.029802 0.005960 2.453144 -1.744018 -133.921509 1162.777710
[Rear_Leg03]
11 607.192505 -0.013351 -0.073195 0.010072 -0.005892 77.010551 607.192505
12 607.192505 -0.013351 -0.073195 0.010061 -0.005909 77.209923 607.192505
13 607.192505 -0.013351 -0.073195 0.010051 -0.005927 77.409264 607.192505
[Rear_Leg04]
11 995.874512 -0.020504 -0.011921 -0.043065 -0.017610 89.676430 995.874573
12 995.874512 -0.020504 -0.011921 -0.043192 -0.017296 90.511719 995.874573
13 995.874512 -0.020504 -0.011921 -0.043283 -0.017068 91.115952 995.874573
[Rear_Foot]
11 3096.176270 -0.067472 -0.041425 -24.624603 82.864990 144.913223 3096.176270
12 3096.176270 -0.067472 -0.041425 -25.833317 83.208084 145.008606 3096.176270
13 3096.176270 -0.067472 -0.041425 -27.100920 83.551315 145.044571 3096.176270
[planeAlignerCenter]
11 0.350077 0.966311 -838.790894 0.000009 0.000003 -179.999985 838.791565
12 0.350077 0.966311 -838.790894 0.000009 0.000003 -179.999985 838.791565
13 0.350077 0.966311 -838.790894 0.000009 0.000003 -179.999985 838.791565
[Rear_Toe1_01]
11 0.653352 83.966492 -371.173737 0.613089 22.872494 99.629951 380.553192
12 0.653352 83.966492 -371.173737 0.580453 22.866512 98.662682 380.553192
13 0.653352 83.966492 -371.173737 0.550390 22.861071 97.809990 380.553192
[Rear_Toe2_01]
11 178.200760 -294.826019 -362.060547 -8.871750 20.708851 -56.372147 499.765686
12 178.200760 -294.826019 -362.060547 -8.864460 20.708477 -57.413227 499.765686
13 178.200760 -294.826019 -362.060547 -8.857160 20.708225 -58.454365 499.765686
[Rear_Toe3_01]
11 -153.359680 -308.780914 -362.060852 3.963283 20.154650 -101.375687 499.952881
12 -153.359680 -308.780914 -362.060852 3.971773 20.161959 -102.406410 499.952881
13 -153.359680 -308.780914 -362.060852 3.980124 20.169413 -103.437263 499.952881
[planeLockWeightCenter]
11 -0.000062 0.000238 0.000000 -0.011814 -0.004373 -0.000015 0.000246
12 -0.000062 0.000238 0.000000 -0.011814 -0.004373 -0.000015 0.000246
13 -0.000062 0.000238 0.000000 -0.011814 -0.004373 -0.000015 0.000246
[Rear_Toe1_02]
11 379.707825 0.194073 0.000477 -0.002640 -33.274055 -0.002640 379.707855
12 379.707825 0.194073 0.000477 -0.002640 -33.273388 -0.002640 379.707855
13 379.707825 0.194073 0.000477 -0.002640 -33.272717 -0.002640 379.707855
[Rear_Toe1_03]
11 500.129700 0.165701 0.000119 -0.008873 83.797707 -0.012375 500.129761
12 500.129700 0.165701 0.000119 -0.008896 83.811066 -0.012397 500.129761
13 500.129700 0.165701 0.000119 -0.008919 83.824318 -0.012420 500.129761
[Rear_Toe2_02]
11 340.494507 0.000238 -0.000954 0.001189 -71.842400 0.001189 340.494507
12 340.494507 0.000238 -0.000954 0.001188 -71.890663 0.001188 340.494507
13 340.494507 0.000238 -0.000954 0.001188 -71.938911 0.001188 340.494507
[Rear_Toe2_03]
11 433.103577 0.000000 0.000238 0.007932 72.983627 0.007932 433.103546
12 433.103577 0.000000 0.000238 0.007990 73.106613 0.007990 433.103546
13 433.103577 0.000000 0.000238 0.008048 73.229568 0.008048 433.103546
[Rear_Toe3_02]
11 340.494141 -0.000358 -0.000477 0.004083 -67.595215 -0.003116 340.494171
12 340.494141 -0.000358 -0.000477 0.002655 -67.783188 -0.000975 340.494171
13 340.494141 -0.000358 -0.000477 0.001196 -67.971130 0.001196 340.494171
[Rear_Toe3_03]
11 433.103577 0.001431 -0.000238 -0.001034 66.479347 -0.004606 433.103546
12 433.103577 0.001431 -0.000238 -0.001070 66.774490 -0.004640 433.103546
13 433.103577 0.001431 -0.000238 0.000650 66.937698 -0.002027 433.103546
[Back_Bone]
11 1312.175781 -701.934692 0.000954 -2.124087 2.079432 -94.396019 1488.125488
12 1312.175781 -701.934692 0.000954 -1.983502 2.508799 -92.604279 1488.125488
13 1312.175781 -701.934692 0.000954 -1.829493 2.933560 -90.810837 1488.125488
[Head]
11 1406.159424 809.709290 0.001431 12.021830 1.293695 9.319221 1622.625488
12 1406.159424 809.709290 0.001431 11.982838 1.374856 7.945002 1622.625488
13 1406.159424 809.709290 0.001431 11.911427 1.407424 6.955430 1622.625488
[Motor_Bone]
11 1158.364380 -417.834747 0.000477 -0.000105 0.000046 -105.985291 1231.419434
12 1158.364380 -417.834747 0.000477 -0.000105 0.000046 -105.985291 1231.419434
13 1158.364380 -417.834747 0.000477 -0.000105 0.000046 -105.985291 1231.419434
[Ping_Mechanism]
11 1225.421143 -433.103027 -22.928635 0.000103 -0.000053 82.120995 1299.908081
12 1217.787598 -431.747437 -24.961632 0.000103 -0.000053 82.120995 1292.298584
13 1210.154053 -430.391846 -26.994629 0.000103 -0.000053 82.120995 1284.693970
[BN_LookIK]
11 193.241119 1380.371704 -0.002861 0.000000 89.965736 -31.038179 1393.832153
12 193.241119 1380.371704 -0.002861 0.000000 89.965736 -31.038179 1393.832153
13 193.241119 1380.371704 -0.002861 0.000000 89.965736 -31.038179 1393.832153
[bottomMouth]
11 -435.092926 615.759399 -0.000954 -0.000022 0.000016 73.527184 753.966492
12 -435.092926 615.759399 -0.000954 -0.000022 0.000016 73.527184 753.966492
13 -435.092926 615.759399 -0.000954 -0.000022 0.000016 73.527184 753.966492
[L_Mouth01]
11 554.440979 7.658243 838.222046 150.204178 23.759130 109.605339 1005.027161
12 554.440979 7.658243 838.222046 150.204178 23.759130 109.605339 1005.027161
13 554.440979 7.658243 838.222046 150.204178 23.759130 109.605339 1005.027161
[L_mouthFront]
11 551.629089 934.514771 339.150421 0.000081 2.804060 79.119301 1136.941284
12 551.629089 934.514771 339.150421 0.000081 2.804060 79.119301 1136.941284
13 551.629089 934.514771 339.150421 0.000081 2.804060 79.119301 1136.941284
[mouthGun]
11 55.332661 1627.420898 0.000000 0.000023 0.000009 -11.038128 1628.361328
12 55.332661 1627.420898 0.000000 0.000023 0.000009 -11.038128 1628.361328
13 55.332661 1627.420898 0.000000 0.000023 0.000009 -11.038128 1628.361328
[R_Mouth01]
11 554.442383 7.659197 -838.223938 29.795891 -23.759109 109.605331 1005.029541
12 554.442383 7.659197 -838.223938 29.795891 -23.759109 109.605331 1005.029541
13 554.442383 7.659197 -838.223938 29.795891 -23.759109 109.605331 1005.029541
[R_mouthFront]
11 551.629089 934.514282 -339.151367 0.000029 -2.803930 79.119133 1136.941162
12 551.629089 934.514282 -339.151367 0.000029 -2.803930 79.119133 1136.941162
13 551.629089 934.514282 -339.151367 0.000029 -2.803930 79.119133 1136.941162
[TopMouth]
11 461.269867 -56.106091 -0.008583 -0.000059 -0.000268 92.025169 464.669525
12 461.269867 -56.106091 -0.008583 -0.000059 -0.000268 92.025169 464.669525
13 461.269867 -56.106091 -0.008583 -0.000059 -0.000268 92.025169 464.669525
[weapon_bone]
11 -987.239868 1448.372803 0.001431 0.000000 89.965736 -31.038221 1752.833740
12 -987.239868 1448.372803 0.001431 0.000000 89.965736 -31.038221 1752.833740
13 -987.239868 1448.372803 0.001431 0.000000 89.965736 -31.038221 1752.833740
